<?xml version="1.0" encoding="utf-8"?>
<!-- Generator: Adobe Illustrator 21.1.0, SVG Export Plug-In . SVG Version: 6.00 Build 0)  -->
<svg version="1.1" xmlns="http://www.w3.org/2000/svg" xmlns:xlink="http://www.w3.org/1999/xlink" x="0px" y="0px"
	 viewBox="0 0 939 850" style="enable-background:new 0 0 939 850;" xml:space="preserve">
<style type="text/css">
	.st0{fill:url(#SVGID_1_);}
	.st1{fill:#F2F2F2;}
	.st2{fill:url(#SVGID_2_);}
	.st3{fill:url(#SVGID_3_);}
	.st4{fill:#FFFFFF;stroke:#878787;stroke-width:2;stroke-miterlimit:10;}
	.st5{fill:#527DBA;}
	.st6{fill:#E0E0E0;}
	.st7{opacity:0.6;fill:#3BB4FF;}
	.st8{opacity:0.6;fill:#5596FF;}
	.st9{opacity:0.6;fill:#6E5FFF;}
	.st10{opacity:0.6;fill:#8B5DBA;}
	.st11{opacity:0.6;fill:#A150FF;}
	.st12{opacity:0.41;fill:#E5E5E5;stroke:#26568E;stroke-width:2;stroke-miterlimit:10;}
	.st13{fill:none;stroke:#878787;stroke-width:2;stroke-miterlimit:10;}
	.st14{fill:#4A6A91;}
	.st15{fill:#FFF0E1;}
	.st16{fill:#C3CEDB;}
	.st17{fill:#F3F8FF;}
	.st18{fill:none;stroke:#527DBA;stroke-width:6;stroke-miterlimit:10;}
</style>
<g id="레이어_1">
	<linearGradient id="SVGID_1_" gradientUnits="userSpaceOnUse" x1="233.3616" y1="296.7073" x2="81.4387" y2="33.569">
		<stop  offset="0" style="stop-color:#FFFFFF"/>
		<stop  offset="1" style="stop-color:#707070"/>
	</linearGradient>
	<path class="st0" d="M230.8,42.8H68c-5.4,0-9.8,4.4-9.8,9.8V250c0,5.4,4.4,9.8,9.8,9.8h80.5v17.8c0,14.3,11.7,25.9,25.9,25.9h40.3
		c14.3,0,25.9-11.7,25.9-25.9V250v-12.7V52.6C240.6,47.2,236.2,42.8,230.8,42.8z"/>
	<path class="st1" d="M208,245.4H60.6c-10.5,0-19-8.5-19-19V46.6c0-10.5,8.5-19,19-19H208c10.5,0,19,8.5,19,19v179.8
		C227,236.9,218.4,245.4,208,245.4z"/>
	<linearGradient id="SVGID_2_" gradientUnits="userSpaceOnUse" x1="538.7698" y1="486.3643" x2="402.2306" y2="249.8714">
		<stop  offset="0" style="stop-color:#FFFFFF"/>
		<stop  offset="1" style="stop-color:#707070"/>
	</linearGradient>
	<path class="st2" d="M610.3,325.4c0-32.8-35.1-59.5-78.4-59.5c-7.8,0-15.3,0.9-22.5,2.5H372.7c-5.4,0-9.8,4.4-9.8,9.8v198.2
		c0,5.4,4.4,9.8,9.8,9.8h163.5c5.4,0,9.8-4.4,9.8-9.8v-92.6C582.6,378.9,610.3,354.6,610.3,325.4z"/>
	<path class="st1" d="M517.9,473H372.7c-10.2,0-18.4-8.2-18.4-18.4V278.5c0-10.2,8.2-18.4,18.4-18.4h145.1
		c10.2,0,18.4,8.2,18.4,18.4v176.1C536.3,464.8,528,473,517.9,473z"/>
	<linearGradient id="SVGID_3_" gradientUnits="userSpaceOnUse" x1="868.1996" y1="817.419" x2="727.334" y2="573.4326">
		<stop  offset="0" style="stop-color:#FFFFFF"/>
		<stop  offset="1" style="stop-color:#707070"/>
	</linearGradient>
	<path class="st3" d="M911.9,629.1h-11.2v-35.6c0-9-7.3-16.3-16.3-16.3H725.2c-9,0-16.3,7.3-16.3,16.3v2.6h-10.4
		c-5.5,0-9.9,4.4-9.9,9.9v24.3v1.3v159.2c0,0.7,0.6,1.2,1.3,1.2h221.9c0.7,0,1.3-0.6,1.3-1.2V630.3
		C913.3,629.6,912.7,629.1,911.9,629.1z"/>
	<path class="st4" d="M845,745.4H743c-21.8,0-39.5-17.7-39.5-39.5v-98c0-21.8,17.7-39.5,39.5-39.5h102c21.8,0,39.5,17.7,39.5,39.5
		v98C884.5,727.7,866.8,745.4,845,745.4z"/>
	<path class="st5" d="M208,53.1H61.7c-3.5,0-6.4-2.9-6.4-6.4v-1c0-3.5,2.9-6.4,6.4-6.4H208c3.5,0,6.4,2.9,6.4,6.4v1
		C214.4,50.3,211.5,53.1,208,53.1z"/>
	<path class="st6" d="M213.2,87.9H58.3c-0.6,0-1.1-0.5-1.1-1.1v-0.2c0-0.6,0.5-1.1,1.1-1.1h154.9c0.6,0,1.1,0.5,1.1,1.1v0.2
		C214.4,87.4,213.8,87.9,213.2,87.9z"/>
	<path class="st6" d="M211.4,126H56.5c-0.6,0-1.1-0.5-1.1-1.1v-0.2c0-0.6,0.5-1.1,1.1-1.1h154.9c0.6,0,1.1,0.5,1.1,1.1v0.2
		C212.5,125.5,212,126,211.4,126z"/>
	<path class="st6" d="M211.4,161.6H56.5c-0.6,0-1.1-0.5-1.1-1.1v-0.2c0-0.6,0.5-1.1,1.1-1.1h154.9c0.6,0,1.1,0.5,1.1,1.1v0.2
		C212.5,161.1,212,161.6,211.4,161.6z"/>
	<path class="st6" d="M211.4,197.3H56.5c-0.6,0-1.1-0.5-1.1-1.1V196c0-0.6,0.5-1.1,1.1-1.1h154.9c0.6,0,1.1,0.5,1.1,1.1v0.2
		C212.5,196.8,212,197.3,211.4,197.3z"/>
	<path class="st6" d="M213.2,233.3H58.3c-0.6,0-1.1-0.5-1.1-1.1V232c0-0.6,0.5-1.1,1.1-1.1h154.9c0.6,0,1.1,0.5,1.1,1.1v0.2
		C214.4,232.8,213.8,233.3,213.2,233.3z"/>
	<path class="st6" d="M79.4,232.3V62.1c0-0.6,0.5-1.1,1.1-1.1h0.2c0.6,0,1.1,0.5,1.1,1.1v170.2c0,0.6-0.5,1.1-1.1,1.1h-0.2
		C80,233.4,79.4,232.9,79.4,232.3z"/>
	<path class="st6" d="M114,232.3V62.1c0-0.6,0.5-1.1,1.1-1.1h0.2c0.6,0,1.1,0.5,1.1,1.1v170.2c0,0.6-0.5,1.1-1.1,1.1h-0.2
		C114.5,233.4,114,232.9,114,232.3z"/>
	<path class="st6" d="M183.6,233.4V63.2c0-0.6,0.5-1.1,1.1-1.1h0.2c0.6,0,1.1,0.5,1.1,1.1v170.2c0,0.6-0.5,1.1-1.1,1.1h-0.2
		C184.1,234.5,183.6,234,183.6,233.4z"/>
	<path class="st6" d="M148.2,232.3V62.1c0-0.6,0.5-1.1,1.1-1.1h0.2c0.6,0,1.1,0.5,1.1,1.1v170.2c0,0.6-0.5,1.1-1.1,1.1h-0.2
		C148.7,233.4,148.2,232.9,148.2,232.3z"/>
	<path class="st7" d="M81.9,144.3v-41.1c0-8.2,6.7-14.9,14.9-14.9H99c8.2,0,14.9,6.7,14.9,14.9v41.1c0,8.2-6.7,14.9-14.9,14.9h-2.2
		C88.6,159.2,81.9,152.5,81.9,144.3z"/>
	<path class="st8" d="M116.2,215.7V102.9c0-8.2,6.7-14.9,14.9-14.9h2.2c8.2,0,14.9,6.7,14.9,14.9v112.9c0,8.2-6.7,14.9-14.9,14.9
		h-2.2C123,230.7,116.2,224,116.2,215.7z"/>
	<path class="st9" d="M150.6,179.9v-38.8c0-8.2,6.7-14.9,14.9-14.9h2.2c8.2,0,14.9,6.7,14.9,14.9v38.8c0,8.2-6.7,14.9-14.9,14.9
		h-2.2C157.3,194.8,150.6,188.1,150.6,179.9z"/>
	<path class="st10" d="M116.3,144.5v-3.6c0-8.2,6.7-14.9,14.9-14.9h2.2c8.2,0,14.9,6.7,14.9,14.9v3.6c0,8.2-6.7,14.9-14.9,14.9h-2.2
		C123,159.4,116.3,152.7,116.3,144.5z"/>
	<path class="st11" d="M151,74.6v-1.6c0-6,4.9-10.9,10.9-10.9h10.2c6,0,10.9,4.9,10.9,10.9v1.6c0,6-4.9,10.9-10.9,10.9h-10.2
		C155.9,85.5,151,80.6,151,74.6z"/>
	<path class="st11" d="M116.3,179.9v-39.3c0-8.2,6.7-14.9,14.9-14.9h2.2c8.2,0,14.9,6.7,14.9,14.9v39.3c0,8.2-6.7,14.9-14.9,14.9
		h-2.2C123,194.8,116.3,188.1,116.3,179.9z"/>
	<path class="st12" d="M116.3,162.4v-36.1c0-8.2,6.7-14.9,14.9-14.9h2.2c8.2,0,14.9,6.7,14.9,14.9v36.1c0,8.2-6.7,14.9-14.9,14.9
		h-2.2C123,177.3,116.3,170.6,116.3,162.4z"/>
	<line class="st13" x1="875.4" y1="589.8" x2="718.9" y2="589.8"/>
	<line class="st13" x1="875" y1="607.9" x2="718.5" y2="607.9"/>
	<path class="st1" d="M903.4,619.7H780.5c-2.5,0-4.8-0.9-6.7-2.6l-30.5-27.8c-1.8-1.7-4.2-2.6-6.7-2.6H690c-5.5,0-9.9,4.4-9.9,9.9
		v24.3v1.3v159.2c0,0.7,0.6,1.2,1.3,1.2h221.9c0.7,0,1.3-0.6,1.3-1.2V620.9C904.7,620.2,904.1,619.7,903.4,619.7z"/>
	<polygon class="st14" points="793.5,647.6 757.9,683.2 777.8,683.2 777.8,735.6 809,735.6 809,683.2 826.9,683.2 	"/>
	<g>
		<polygon class="st14" points="728.3,762.8 728.3,764.9 859.7,764.9 859.7,762.8 835.2,762.8 		"/>
		<polygon class="st14" points="835.2,735.8 835.2,749.3 752.8,749.3 752.8,734.1 728.3,734.1 728.3,749.3 728.3,756.7 859.7,756.7 
			859.7,749.3 859.7,735.8 		"/>
		<polygon class="st14" points="728.3,761.1 728.3,762.8 835.2,762.8 859.7,762.8 859.7,756.7 728.3,756.7 		"/>
	</g>
	<g>
		<path class="st15" d="M184.1,296.5h-6.4c-23.6,0-42.9-19.3-42.9-42.9v-6.4c0-23.6,19.3-42.9,42.9-42.9h6.4
			c23.6,0,42.9,19.3,42.9,42.9v6.4C227,277.2,207.7,296.5,184.1,296.5z"/>
		<path class="st15" d="M158,235h-14.6c-4.8,0-8.6-3.9-8.6-8.6v-50c0-8.2,6.6-14.8,14.8-14.8h2.2c8.2,0,14.8,6.6,14.8,14.8v50
			C166.7,231.2,162.8,235,158,235z"/>
	</g>
	<path class="st16" d="M397.2,346.5h-15.5c-6.6,0-12-5.4-12-12v-15.5c0-6.6,5.4-12,12-12h15.5c6.6,0,12,5.4,12,12v15.5
		C409.2,341.1,403.8,346.5,397.2,346.5z"/>
	<path class="st16" d="M453.6,346.5h-15.5c-6.6,0-12-5.4-12-12v-15.5c0-6.6,5.4-12,12-12h15.5c6.6,0,12,5.4,12,12v15.5
		C465.6,341.1,460.2,346.5,453.6,346.5z"/>
	<path class="st16" d="M509.5,346.5H494c-6.6,0-12-5.4-12-12v-15.5c0-6.6,5.4-12,12-12h15.5c6.6,0,12,5.4,12,12v15.5
		C521.5,341.1,516.1,346.5,509.5,346.5z"/>
	<path class="st16" d="M397.2,402.4h-15.5c-6.6,0-12-5.4-12-12v-15.5c0-6.6,5.4-12,12-12h15.5c6.6,0,12,5.4,12,12v15.5
		C409.2,397,403.8,402.4,397.2,402.4z"/>
	<path class="st5" d="M453.2,402.4h-15.5c-6.6,0-12-5.4-12-12v-15.5c0-6.6,5.4-12,12-12h15.5c6.6,0,12,5.4,12,12v15.5
		C465.2,397,459.8,402.4,453.2,402.4z"/>
	<path class="st16" d="M509.5,402.4H494c-6.6,0-12-5.4-12-12v-15.5c0-6.6,5.4-12,12-12h15.5c6.6,0,12,5.4,12,12v15.5
		C521.5,397,516.1,402.4,509.5,402.4z"/>
	<path class="st16" d="M397.2,454.9h-15.5c-6.6,0-12-5.4-12-12v-15.5c0-6.6,5.4-12,12-12h15.5c6.6,0,12,5.4,12,12v15.5
		C409.2,449.5,403.8,454.9,397.2,454.9z"/>
	<path class="st16" d="M453.6,454.9h-15.5c-6.6,0-12-5.4-12-12v-15.5c0-6.6,5.4-12,12-12h15.5c6.6,0,12,5.4,12,12v15.5
		C465.6,449.5,460.2,454.9,453.6,454.9z"/>
	<path class="st16" d="M509.5,454.9H494c-6.6,0-12-5.4-12-12v-15.5c0-6.6,5.4-12,12-12h15.5c6.6,0,12,5.4,12,12v15.5
		C521.5,449.5,516.1,454.9,509.5,454.9z"/>
	<path class="st5" d="M532.5,287.6H354.3v-6.2c0-11.8,9.5-21.3,21.3-21.3h156.9V287.6z"/>
	<path class="st17" d="M523.9,257.2c-43.3,0-78.4,26.6-78.4,59.5c0,11.8,4.6,22.8,12.4,32.1l0,0l-7.8,39.1l46.2-15.9l4.1,1.5
		c7.4,1.8,15.4,2.7,23.6,2.7c43.3,0,78.4-26.6,78.4-59.5S567.2,257.2,523.9,257.2z"/>
	<polygon class="st14" points="510.6,270.7 526.1,270.7 526.1,324.6 516.6,324.6 	"/>
	<polygon class="st14" points="540.2,270.7 524.7,270.7 524.7,324.6 534.2,324.6 	"/>
	<circle class="st14" cx="525.4" cy="342.2" r="10.9"/>
	<g>
		<path class="st5" d="M631.2,789.9c-8.5-0.3-17.1-1.2-25.5-2.4c-8.5-1.2-16.9-2.8-25.2-4.7c-16.7-3.9-33.1-9-49-15.6
			c-15.9-6.5-31.2-14.5-45.7-23.8c-14.5-9.3-28-20.2-40.3-32.3c-6.1-6.1-11.9-12.5-17.3-19.2c-1.3-1.7-2.7-3.3-4-5.1l-3.9-5.2
			c-2.5-3.5-5-7-7.2-10.7c-2.4-3.6-4.5-7.4-6.7-11.1c-2-3.8-4.2-7.5-6-11.4c-2-3.8-3.7-7.8-5.5-11.7c-0.9-2-1.6-4-2.4-6l-1.2-3
			c-0.4-1-0.7-2-1.1-3l-2.2-6.1l-2-6.1l-1-3.1l-0.9-3.1l-1.7-6.2c-2.1-8.3-4-16.7-5.4-25.2c-2.9-16.9-4.4-34-4.6-51.1
			c1.3,17,3.5,34,7,50.6c1.7,8.3,3.8,16.6,6.2,24.7l1.9,6.1l0.9,3l1,3l2.1,6l2.3,5.9c12.5,31.5,31.1,60.5,55.2,84.3
			c24,23.9,53,42.5,84,56.1c7.8,3.4,15.7,6.5,23.7,9.3c8,2.8,16.2,5.3,24.4,7.5c8.2,2.2,16.5,4.1,24.9,5.8c4.2,0.8,8.4,1.5,12.6,2.2
			C622.7,789,626.9,789.6,631.2,789.9z"/>
	</g>
	<g>
		<path class="st5" d="M336.3,501.4c-8.4,1.3-17,1.9-25.5,2.3c-8.6,0.3-17.1,0.3-25.7-0.1c-17.1-0.8-34.2-2.9-51-6.4
			c-16.8-3.5-33.3-8.6-49.3-15.1c-15.9-6.5-31.2-14.8-45.5-24.5c-7.1-4.9-13.9-10.2-20.5-15.8c-1.6-1.4-3.3-2.8-4.9-4.3l-4.7-4.4
			c-3.1-3-6.2-6-9.1-9.2c-3-3.1-5.7-6.4-8.6-9.7c-2.7-3.4-5.5-6.7-8-10.2c-2.6-3.4-5-7-7.5-10.5c-1.2-1.8-2.3-3.6-3.5-5.4l-1.7-2.7
			c-0.6-0.9-1.1-1.9-1.6-2.8l-3.3-5.6l-3.1-5.7l-1.5-2.8l-1.4-2.9l-2.8-5.8c-3.6-7.8-7-15.7-9.9-23.8c-5.9-16.1-10.5-32.6-13.8-49.4
			c4.4,16.5,9.6,32.8,16.1,48.5c3.2,7.9,6.8,15.6,10.6,23.2l3,5.6l1.5,2.8l1.6,2.8l3.2,5.5l3.3,5.4c18,28.7,41.6,53.9,69.6,72.9
			c27.9,19.1,59.8,32.2,92.8,39.9c8.3,1.9,16.6,3.5,25,4.8c8.4,1.3,16.8,2.3,25.3,3c8.5,0.7,17,1.1,25.5,1.2c4.3,0,8.5,0,12.8-0.1
			C327.8,502,332,501.8,336.3,501.4z"/>
	</g>
</g>
<g id="레이어_2">
	<path class="st18" d="M501.7,225.2"/>
</g>
</svg>
