<?xml version="1.0" encoding="utf-8"?>
<!-- Generator: Adobe Illustrator 21.1.0, SVG Export Plug-In . SVG Version: 6.00 Build 0)  -->
<svg version="1.1" id="레이어_1" xmlns="http://www.w3.org/2000/svg" xmlns:xlink="http://www.w3.org/1999/xlink" x="0px"
	 y="0px" viewBox="0 0 100 16" style="enable-background:new 0 0 100 16;" xml:space="preserve">
<style type="text/css">
	.st0{fill:#CADEEF;}
	.st1{fill:#FFFFFF;}
	.st2{fill:none;}
	.st3{fill:#8ABCED;}
	.st4{font-family:'BerlinSansFBDemi-Bold';}
	.st5{font-size:14px;}
</style>
<path class="st0" d="M15.6,7.2c0-0.4-0.4-0.8-0.8-0.8l0,0c-0.4,0-0.8,0.4-0.8,0.8v4.9c0,0,0,0,0,0c-0.9,0-1.6,0.7-1.6,1.6
	c0,0.9,0.7,1.6,1.6,1.6c0.9,0,1.6-0.7,1.6-1.6c0-0.1,0-0.1,0-0.2c0,0,0-0.1,0-0.1V7.2z"/>
<path class="st0" d="M19.6,1.7C19.6,1.7,19.5,1.7,19.6,1.7c-0.1,0-0.1,0-0.1,0h-5.8c0,0,0,0,0,0c0,0-0.1,0-0.1,0
	c-0.9,0-1.6,0.7-1.6,1.6H9.3c0,0,0-0.1,0-0.1c0-0.9-0.7-1.6-1.6-1.6c-0.9,0-1.6,0.7-1.6,1.6c0,0.9,0.7,1.6,1.6,1.6c0,0,0,0,0,0
	c0,0,0,0,0,0H12v5c0,0.4,0.4,0.8,0.8,0.8c0.4,0,0.8-0.4,0.8-0.8V4.8c0,0,0,0,0,0c0.9,0,1.6-0.7,1.6-1.6c0,0,0,0,0,0H18
	c0,0.9,0.7,1.6,1.6,1.6c0.9,0,1.6-0.7,1.6-1.6C21.2,2.4,20.5,1.7,19.6,1.7z"/>
<circle class="st1" cx="7.7" cy="3.1" r="0.9"/>
<circle class="st1" cx="14" cy="13.8" r="0.9"/>
<circle class="st1" cx="19.6" cy="3.2" r="0.9"/>
<path class="st0" d="M12.1,12.3L12.1,12.3c-0.1,0-0.2-0.1-0.2-0.2v-0.7c0-0.1,0.1-0.2,0.2-0.2h0c0.1,0,0.2,0.1,0.2,0.2v0.7
	C12.3,12.2,12.2,12.3,12.1,12.3z"/>
<path class="st0" d="M15.4,5.7L15.4,5.7c-0.1,0-0.2-0.1-0.2-0.2V4.8c0-0.1,0.1-0.2,0.2-0.2l0,0c0.1,0,0.2,0.1,0.2,0.2v0.7
	C15.6,5.6,15.5,5.7,15.4,5.7z"/>
<circle class="st1" cx="7.7" cy="3.1" r="0.9"/>
<rect x="25" y="0.9" class="st2" width="69.5" height="20.5"/>
<text transform="matrix(1 0 0 1 25 12.7096)" class="st3 st4 st5">Timple</text>
</svg>
