<?xml version="1.0" encoding="utf-8"?>
<!-- Generator: Adobe Illustrator 16.0.0, SVG Export Plug-In . SVG Version: 6.00 Build 0)  -->
<!DOCTYPE svg PUBLIC "-//W3C//DTD SVG 1.1//EN" "http://www.w3.org/Graphics/SVG/1.1/DTD/svg11.dtd">
<svg version="1.1" id="Layer_1" xmlns="http://www.w3.org/2000/svg" xmlns:xlink="http://www.w3.org/1999/xlink" x="0px" y="0px"
	 width="144px" height="110px" viewBox="0 0 144 110" enable-background="new 0 0 144 110" xml:space="preserve">
	<g>
		<g>
			<defs>
				<path id="SVGID_1_" d="M123.694,31.412h-15.715v-6.985h15.018v-7.334h-15.018v-6.635h15.715V2.425H98.899v37.019h24.795V31.412z
					 M75.31,24.427h4.791l8.188,15.017h9.097l-8.938-15.912c4.434-1.402,7.648-5.402,7.648-10.3c0-6.049-4.905-10.807-10.954-10.807
					H66.23v37.019h9.08V24.427z M75.31,9.759h9.483c1.65,0,3.188,2.191,3.188,3.841s-1.538,3.841-3.188,3.841H75.31V9.759z
					 M23.972,39.444h9.081V2.425h-9.081v13.62H11.747V2.425H2.668v37.019h9.079V25.125h12.225V39.444z M129.228,56.251v31.137
					l-16.434-31.137H98.723v41.922L83.21,56.251H70.701l-18.513,51.324H65.66l3.393-9.199h16.434l3.243,9.199h22.098V76.753
					l18.741,30.822h11.764V56.251H129.228z M77.195,90.423c-5.048,0-9.156-4.106-9.156-9.155c0-5.048,4.108-9.155,9.156-9.155
					s9.155,4.107,9.155,9.155C86.351,86.316,82.243,90.423,77.195,90.423z M62.389,31.412H46.672v-6.985H61.69v-7.334H46.672v-6.635
					h15.716V2.425H37.592v37.019h24.797V31.412z M54.885,77.071H34.549v-9.684h21.789V56.251H21.961v51.324h12.588V87.724h20.336
					V77.071z"/>
			</defs>
			<clipPath id="SVGID_2_">
				<use xlink:href="#SVGID_1_"  overflow="visible"/>
			</clipPath>
			<g clip-path="url(#SVGID_2_)">
				<path fill="#1BACAA" d="M50.614-10.399c0.258,3.442,0.525,6.885,0.797,10.323c0.628,0.123,1.235,0.304,1.828,0.528
					c6.066,1.952,9.516,8.378,11.5,14.981c0.216,0.684,0.411,1.362,0.578,2.025c0.059,0.231,0.106,0.466,0.161,0.697
					c0.137,0.563,0.265,1.121,0.385,1.675c0.068,0.312,0.132,0.625,0.196,0.939c0.107,0.538,0.206,1.067,0.298,1.59
					c1.752,9.782,1.649,19.972,1.45,30.011c0.11,0.364,0.277,0.709,0.521,1.039c1.037,0.926,2.264,1.787,3.557,2.291
					c0.12,0.045,0.239,0.092,0.359,0.131c0.047,0.016,0.096,0.029,0.145,0.043c0.175,0.055,0.349,0.105,0.523,0.142
					c0.022,0.006,0.044,0.009,0.066,0.013c0.629,0.131,1.267,0.159,1.879,0.016c3.158-0.749,4.82-3.846,5.774-6.732
					c0.353-1.069,0.67-2.147,0.953-3.237c0.158-1,0.489-2.025,0.638-2.797c0.475-2.473,0.868-4.959,1.109-7.466
					c0.275-2.847,0.474-5.725,0.586-8.612c0.042-1.647,0.058-3.289,0.058-4.92c0-1.218-0.021-2.442-0.055-3.667
					c0-0.018-0.005-0.034-0.007-0.052c-0.108-2.996-0.335-5.982-0.684-8.961c-0.227-1.762-0.503-3.556-0.856-5.348
					c-0.163-0.771-0.337-1.539-0.529-2.3c-0.569-2.224-1.266-4.613-2.185-6.934c-1.503-3.574-3.559-6.861-6.438-9.514
					c-0.475-0.387-0.965-0.743-1.471-1.078c-6.527-4.117-14.934-3.557-21.229,0.579c0.096,1.159,0.193,2.317,0.288,3.476
					C50.849-11.075,50.766-10.708,50.614-10.399z"/>
				<path fill="#1BACAA" d="M87.455,6.114c2.251,12.324,1.576,25.762-0.642,37.302c-0.472,2.456-0.679,3.019,0.528,5.34
					c1.396,2.685,4.585,7.07,7.842,8.014c1.51,0.376,2.956,0.092,4.196-1.256c0.319-0.348,0.616-0.715,0.9-1.097
					c2.296-3.456,3.616-7.596,4.422-11.838c0.138-0.789,0.259-1.574,0.364-2.347c0.102-0.987,0.219-1.932,0.345-2.813
					c0.003-0.024,0.012-0.041,0.017-0.066c0.046-0.411,0.09-0.816,0.131-1.213c0.113-1.081,0.218-2.178,0.316-3.284
					c0.009-0.136,0.02-0.277,0.031-0.414c0.517-7.148,0.634-14.418-0.134-21.557c-0.326-3.057-0.736-6.66-1.465-10.262
					c-0.925-3.696-2.185-7.256-3.882-10.575c-0.152-0.299-0.183-0.418-0.436-0.872c-0.724-1.155-1.377-2.234-2.318-3.148
					c-5.591-5.438-14.16-6.476-21.177-3.681C83.008-11.619,86.068-2.869,87.455,6.114z"/>
				<path fill="#07174B" d="M105.503,54.822c-0.472,0.854-0.997,1.66-1.582,2.408c-1.706,2.383-3.962,4.145-6.988,4.279
					c-3.34,0.148-6.61-1.547-8.896-3.912c-1.22-1.262-2.647-2.947-3.849-4.779c-1.628,3.797-4.122,7.06-8.122,7.61
					c-0.104,0.015-0.209,0.016-0.315,0.027c-1.643,0.282-3.255,0.136-4.789-0.326c-0.043-0.012-0.084-0.024-0.127-0.036
					c-0.055-0.018-0.108-0.036-0.162-0.055c-1.04-0.307-2.038-0.756-2.984-1.342c-0.016,1.16-0.029,2.318-0.036,3.47
					c4.749,0.456,9.594,1.452,13.823,3.652l0.003,0.001c0.748,0.346,1.488,0.715,2.217,1.102c0.182,0.098,0.359,0.207,0.542,0.308
					c0.545,0.298,1.086,0.599,1.616,0.921c0.193,0.116,0.379,0.244,0.568,0.363c0.515,0.322,1.026,0.645,1.526,0.987
					c0.18,0.124,0.354,0.257,0.53,0.383c0.504,0.353,1.002,0.709,1.49,1.083c0.164,0.127,0.321,0.264,0.484,0.392
					c0.49,0.388,0.977,0.776,1.45,1.185c0.153,0.132,0.302,0.273,0.454,0.408c0.471,0.416,0.937,0.834,1.388,1.268
					c0.15,0.145,0.292,0.296,0.44,0.441c0.44,0.437,0.878,0.877,1.301,1.332c0.152,0.16,0.294,0.328,0.444,0.492
					c0.403,0.448,0.807,0.899,1.191,1.363c0.157,0.188,0.306,0.382,0.457,0.572c0.361,0.449,0.722,0.902,1.064,1.365
					c0.164,0.223,0.321,0.451,0.483,0.678c0.312,0.438,0.623,0.879,0.918,1.331c0.177,0.267,0.345,0.542,0.515,0.813
					c0.259,0.417,0.518,0.832,0.764,1.256c0.188,0.325,0.364,0.654,0.543,0.984c0.205,0.38,0.412,0.758,0.603,1.143
					c0.199,0.39,0.383,0.786,0.566,1.182c0.154,0.331,0.309,0.66,0.454,0.996c0.198,0.463,0.385,0.932,0.567,1.401
					c0.105,0.272,0.214,0.546,0.313,0.821c0.195,0.542,0.378,1.09,0.552,1.643c0.062,0.207,0.132,0.412,0.192,0.621
					c0.184,0.625,0.352,1.256,0.506,1.891c0.02,0.083,0.047,0.162,0.065,0.244c0.027,0.111,0.048,0.221,0.073,0.33
					c0.055,0.246,0.126,0.488,0.177,0.736c0.191,0.929,0.358,1.868,0.497,2.811c0.662,4.344,0.735,8.793,0.087,13.138
					c-0.295,2.024-0.741,4.024-1.361,5.978c-0.054,0.168-0.113,0.335-0.175,0.504c-0.398,1.256-0.837,2.496-1.356,3.713
					c-0.19,0.447-0.656,1.164-0.979,1.794c-0.209,0.679-0.341,1.348-0.341,1.992c0,0.051,0,0.101,0,0.151
					c16.138-14.336,21.684-37.657,13.308-57.854C109.618,66.167,106.723,60.862,105.503,54.822z"/>
				<path fill="#343E9D" d="M105.84-9.021c0.019,0.044,0.034,0.09,0.053,0.135c0.138,0.336,0.27,0.673,0.4,1.012
					c0.083,0.216,0.168,0.431,0.248,0.648c0.156,0.421,0.309,0.845,0.452,1.271c0.039,0.111,0.076,0.222,0.115,0.334
					c2.636,7.838,3.529,16.401,3.704,24.52c0.161,7.411-0.039,15.104-1.352,22.498c-0.792,8.062-0.422,20.488,8.415,22.601
					c5.322,1.524,8.328-7.004,9.514-10.742c2.582-8.15,3.462-16.654,3.519-25.175c-0.107-9.612-2.256-19.595-7.678-27.688
					C118.84-6.167,113.224-9.035,105.84-9.021z"/>
				<path fill="#F5146C" d="M84.499,72.7c-0.175-0.113-0.35-0.229-0.526-0.342c-0.346-0.219-0.695-0.432-1.05-0.639
					c-0.333-0.199-0.674-0.391-1.014-0.581c-0.262-0.144-0.521-0.291-0.786-0.432c-0.639-0.335-1.284-0.659-1.942-0.964
					c-0.005-0.002-0.006-0.005-0.011-0.007c-4.157-2.159-9.2-2.917-13.802-3.205c-0.168-0.011-0.333-0.04-0.494-0.081
					c-0.021-0.006-0.04-0.015-0.061-0.02c-0.975-0.273-1.712-1.077-1.717-2.173c0-0.071,0-0.146,0-0.218v-0.006
					c-0.005-7.348-0.011-14.695-0.028-22.041c-0.006-3.319-0.004-6.638-0.167-9.946c-0.002-0.061-0.006-0.123-0.01-0.183
					c-0.037-0.728-0.084-1.455-0.139-2.181c-0.021-0.268-0.047-0.533-0.069-0.801c-0.045-0.502-0.092-1.004-0.147-1.507
					c-0.026-0.227-0.049-0.455-0.076-0.681c-0.189-1.59-0.437-3.175-0.771-4.755c-0.202-0.964-0.422-1.964-0.671-2.977
					c-0.118-0.442-0.236-0.886-0.367-1.326c-0.899-3-2.23-6.771-4.4-9.524c-0.424-0.517-0.881-1.005-1.374-1.456
					c-1.357-1.239-2.944-1.976-4.542-2.198C50.218,4.444,50.1,4.43,49.979,4.42c-0.051-0.006-0.103-0.006-0.155-0.011
					c-0.171-0.01-0.342-0.019-0.517-0.019c-2.535,0.063-4.417,1.336-5.87,3.155c-0.151,0.214-0.297,0.431-0.434,0.667
					c-1.234,2.149-2.276,4.416-3.156,6.758c-0.228,0.703-0.438,1.39-0.635,2.037c-1.792,5.928-2.748,11.979-3.012,18.135
					c-0.033,2.1,0.03,4.186,0.181,6.24c0.766,10.287,1.533,20.575,2.3,30.863c0.219,2.926-4.329,2.904-4.543,0
					c-0.844-11.267-1.694-22.534-2.52-33.804c-0.006-0.083-0.009-0.167-0.013-0.252c-0.009-0.083-0.024-0.164-0.022-0.253
					c0-0.039,0-0.077,0-0.115c-0.315-5.519,0.497-11.531,1.857-17.058c0.502-2.213,1.123-4.394,1.878-6.519
					c1.67-5.235,4.233-11.648,9.247-13.584c0.787-0.306,1.554-0.524,2.297-0.677c-0.18-2.249-0.361-4.496-0.543-6.745
					c-0.108-1.357-0.385-2.709-0.267-4.013c-0.842-11.436-1.623-22.878-2.58-34.372c-0.88-10.535-0.784-22.172-3.922-32.308
					c-2.246-7.261-6.872-14.862-15.438-14.442c-3.535,0.172-5.349,2.328-6.269,5.646c-1.679,6.052-1.665,12.569-1.645,18.802
					c0,0,0,0.005,0,0.008c0,1.891,0,3.784,0,5.676c0,40.644,0,81.29,0,121.933c0,22.096,0,44.191,0,66.287c0,6.927,0,13.855,0,20.785
					c0,2.461-0.644,5.93,0.137,8.336c2.16,6.651,13.504,9.069,19.298,10.273c3.994,0.829,8.055,1.412,12.146,1.762
					c0.062,0,0.117-0.01,0.184-0.005c6.014,0.433,12.021,0.433,18.034,0c0.917-0.076,1.834-0.146,2.745-0.247
					c8.394-0.918,19.761-2.369,26.341-8.322c3.466-3.137,2.68-6.758,2.68-11.062c0-5.037,0-10.074,0-15.111c0-0.729,0-1.457,0-2.186
					c0-0.933,0-1.864,0-2.797c0-0.699,0-1.397,0-2.099c0-0.438,0-0.882,0-1.321c0-1.645,1.367-3.491,2.028-5.053
					c0.105-0.271,0.203-0.547,0.303-0.823C106.052,101.118,99.457,82.527,84.499,72.7z"/>
				<path fill="#1BACAA" d="M68.27,171.979c7.942-0.737,15.862-2.385,23.185-5.529c4.979-2.137,10.576-5.918,10.851-11.857
					c0.351-7.578,0.047-15.234,0.008-22.832c19.24-15.069,26.478-40.303,18.312-63.162c4.553-0.875,7.641-5.664,9.548-9.944
					c4.209-9.443,5.214-20.355,5.28-30.574c-0.121-11.064-2.844-22.271-9.276-31.408c-5.465-7.767-13.265-10.833-22.523-10.15
					c-4.226-6.91-12.63-10.496-20.89-10.262c-3.812,0.109-7.566,1.352-10.868,3.239c-1.708-0.842-3.558-1.502-5.563-1.957
					c-4.082-0.931-8.383-0.526-12.349,0.701c-0.865,0.268-2.51,0.832-4.09,1.604c-0.736-10.023-1.466-20.059-2.304-30.106
					c-0.983-11.796-0.958-24.398-6.345-35.189C37.51-92.925,30.02-97.59,21.616-96.16c-11.282,1.919-9.989,20.793-9.965,28.706v0.006
					c0,31.976,0,63.949,0,95.924c0,40.314,0,80.63,0,120.945c0,3.672-0.417,7.261,1.831,10.451
					c4.045,5.743,12.191,8.174,18.621,9.824c4.438,1.14,8.992,1.883,13.585,2.315C45.688,172.012,62.494,172.686,68.27,171.979
					 M68.27,171.979 M97.672-13.973c0.941,0.915,1.595,1.994,2.318,3.148c0.253,0.454,0.283,0.572,0.436,0.872
					c1.697,3.319,2.957,6.879,3.882,10.575c0.729,3.602,1.139,7.206,1.465,10.262c0.768,7.139,0.65,14.409,0.134,21.557
					c-0.012,0.137-0.022,0.278-0.031,0.414c-0.099,1.106-0.203,2.204-0.316,3.284c-0.041,0.396-0.085,0.802-0.131,1.213
					c-0.005,0.025-0.014,0.042-0.017,0.066c-0.126,0.881-0.243,1.826-0.345,2.813c-0.105,0.772-0.227,1.558-0.364,2.347
					c-0.806,4.242-2.126,8.382-4.422,11.838c-0.284,0.382-0.581,0.749-0.9,1.097c-1.24,1.348-2.687,1.632-4.196,1.256
					c-3.257-0.944-6.446-5.33-7.842-8.014c-1.207-2.321-1-2.884-0.528-5.34c2.218-11.54,2.893-24.978,0.642-37.302
					c-1.387-8.983-4.447-17.732-10.96-23.768C83.512-20.449,92.081-19.411,97.672-13.973z M71.754-15.573
					c0.505,0.335,0.996,0.691,1.471,1.078c2.879,2.653,4.935,5.94,6.438,9.514c0.919,2.32,1.615,4.71,2.185,6.934
					c0.192,0.761,0.366,1.529,0.529,2.3c0.354,1.792,0.63,3.586,0.856,5.348c0.349,2.979,0.575,5.965,0.684,8.961
					c0.002,0.019,0.007,0.034,0.007,0.052c0.033,1.225,0.055,2.449,0.055,3.667c0,1.632-0.016,3.273-0.058,4.92
					c-0.112,2.887-0.311,5.765-0.586,8.612c-0.241,2.507-0.635,4.994-1.109,7.466c-0.148,0.771-0.479,1.797-0.638,2.797
					c-0.283,1.09-0.601,2.168-0.953,3.237c-0.954,2.886-2.616,5.983-5.774,6.732c-0.612,0.144-1.25,0.115-1.879-0.016
					c-0.022-0.004-0.044-0.007-0.066-0.013c-0.175-0.037-0.349-0.087-0.523-0.142c-0.049-0.014-0.098-0.027-0.145-0.043
					c-0.12-0.039-0.24-0.086-0.359-0.131c-1.293-0.504-2.52-1.365-3.557-2.291c-0.245-0.33-0.412-0.675-0.521-1.039
					c0.199-10.039,0.302-20.229-1.45-30.011c-0.092-0.523-0.191-1.053-0.298-1.59c-0.064-0.314-0.128-0.627-0.196-0.939
					c-0.12-0.554-0.248-1.111-0.385-1.675c-0.055-0.231-0.102-0.466-0.161-0.697c-0.167-0.664-0.362-1.341-0.578-2.025
					c-1.984-6.603-5.434-13.029-11.5-14.981c-0.593-0.225-1.199-0.405-1.828-0.528c-0.271-3.438-0.539-6.88-0.797-10.323
					c0.151-0.309,0.235-0.676,0.198-1.119c-0.095-1.159-0.192-2.317-0.288-3.476C56.82-19.129,65.227-19.689,71.754-15.573z
					 M100.092,118.586c-0.1,0.276-0.197,0.552-0.303,0.823c-0.661,1.562-2.028,3.408-2.028,5.053c0,0.439,0,0.883,0,1.321
					c0,0.701,0,1.399,0,2.099c0,0.933,0,1.864,0,2.797c0,0.729,0,1.457,0,2.186c0,5.037,0,10.074,0,15.111
					c0,4.305,0.786,7.926-2.68,11.062c-6.58,5.953-17.947,7.404-26.341,8.322c-0.911,0.101-1.828,0.171-2.745,0.247
					c-6.013,0.433-12.021,0.433-18.034,0c-0.067-0.005-0.122,0.005-0.184,0.005c-4.091-0.35-8.152-0.933-12.146-1.762
					c-5.794-1.204-17.139-3.622-19.298-10.273c-0.78-2.406-0.137-5.875-0.137-8.336c0-6.93,0-13.858,0-20.785
					c0-22.096,0-44.191,0-66.287c0-40.644,0-81.289,0-121.933c0-1.893,0-3.785,0-5.676c0-0.003,0-0.005,0-0.005
					c-0.02-6.236-0.034-12.753,1.645-18.805c0.92-3.318,2.734-5.474,6.269-5.646c8.567-0.42,13.193,7.181,15.438,14.442
					c3.138,10.136,3.042,21.773,3.922,32.308c0.957,11.493,1.738,22.936,2.58,34.372c-0.118,1.304,0.159,2.655,0.267,4.013
					c0.182,2.249,0.364,4.496,0.543,6.745c-0.744,0.153-1.51,0.372-2.297,0.677c-5.014,1.936-7.577,8.349-9.247,13.584
					c-0.756,2.125-1.376,4.306-1.878,6.519c-1.36,5.527-2.172,11.539-1.857,17.058c0,0.038,0,0.077,0,0.115
					c-0.002,0.089,0.014,0.169,0.022,0.253c0.004,0.084,0.007,0.169,0.013,0.252c0.826,11.271,1.676,22.538,2.52,33.804
					c0.215,2.904,4.762,2.926,4.543,0c-0.767-10.288-1.535-20.576-2.3-30.863c-0.151-2.054-0.214-4.14-0.181-6.24
					c0.264-6.157,1.219-12.208,3.012-18.135c0.197-0.647,0.408-1.334,0.635-2.037c0.879-2.342,1.921-4.608,3.156-6.758
					c0.137-0.236,0.283-0.454,0.434-0.667c1.453-1.819,3.335-3.092,5.87-3.155c0.175,0,0.346,0.009,0.517,0.019
					c0.052,0.005,0.104,0.005,0.155,0.011c0.122,0.009,0.239,0.023,0.357,0.039c1.598,0.222,3.185,0.958,4.542,2.198
					c0.493,0.451,0.95,0.939,1.374,1.456c2.17,2.752,3.501,6.523,4.4,9.524c0.13,0.44,0.249,0.884,0.367,1.326
					c0.25,1.012,0.469,2.012,0.671,2.977c0.333,1.58,0.581,3.166,0.771,4.755c0.026,0.226,0.05,0.454,0.076,0.681
					c0.055,0.502,0.102,1.004,0.147,1.507c0.021,0.268,0.047,0.533,0.069,0.801c0.055,0.726,0.102,1.453,0.139,2.181
					c0.004,0.061,0.008,0.123,0.01,0.183c0.163,3.308,0.161,6.626,0.167,9.946c0.018,7.346,0.023,14.693,0.028,22.041v0.006
					c0,0.072,0,0.146,0,0.218c0.005,1.096,0.742,1.899,1.717,2.173c0.021,0.005,0.041,0.014,0.061,0.02
					c0.16,0.041,0.326,0.07,0.494,0.081c4.602,0.288,9.645,1.046,13.802,3.205c0.005,0.002,0.006,0.005,0.011,0.007
					c0.658,0.305,1.304,0.629,1.942,0.964c0.266,0.141,0.524,0.288,0.786,0.432c0.34,0.19,0.681,0.382,1.014,0.581
					c0.354,0.207,0.704,0.42,1.05,0.639c0.177,0.112,0.352,0.229,0.526,0.342C99.457,82.527,106.052,101.118,100.092,118.586z
					 M102.306,125.935c0-0.051,0-0.101,0-0.151c0-0.645,0.132-1.313,0.341-1.992c0.323-0.63,0.789-1.347,0.979-1.794
					c0.52-1.217,0.958-2.457,1.356-3.713c0.062-0.169,0.121-0.336,0.175-0.504c0.62-1.953,1.066-3.953,1.361-5.978
					c0.648-4.345,0.575-8.794-0.087-13.138c-0.139-0.942-0.306-1.882-0.497-2.811c-0.051-0.248-0.122-0.49-0.177-0.736
					c-0.025-0.109-0.046-0.219-0.073-0.33c-0.019-0.082-0.046-0.161-0.065-0.244c-0.154-0.635-0.322-1.266-0.506-1.891
					c-0.061-0.209-0.13-0.414-0.192-0.621c-0.174-0.553-0.356-1.101-0.552-1.643c-0.1-0.275-0.208-0.549-0.313-0.821
					c-0.183-0.47-0.369-0.938-0.567-1.401c-0.146-0.336-0.3-0.665-0.454-0.996c-0.184-0.396-0.367-0.792-0.566-1.182
					c-0.19-0.385-0.397-0.763-0.603-1.143c-0.179-0.33-0.354-0.659-0.543-0.984c-0.246-0.424-0.505-0.839-0.764-1.256
					c-0.17-0.271-0.338-0.547-0.515-0.813c-0.295-0.452-0.606-0.894-0.918-1.331c-0.162-0.227-0.319-0.455-0.483-0.678
					c-0.343-0.463-0.703-0.916-1.064-1.365c-0.151-0.19-0.3-0.385-0.457-0.572c-0.385-0.464-0.788-0.915-1.191-1.363
					c-0.15-0.164-0.292-0.332-0.444-0.492c-0.423-0.455-0.86-0.896-1.301-1.332c-0.148-0.146-0.29-0.297-0.44-0.441
					c-0.451-0.434-0.917-0.852-1.388-1.268c-0.152-0.135-0.301-0.276-0.454-0.408c-0.474-0.408-0.96-0.797-1.45-1.185
					c-0.163-0.128-0.32-0.265-0.484-0.392c-0.488-0.374-0.986-0.73-1.49-1.083c-0.176-0.126-0.351-0.259-0.53-0.383
					c-0.5-0.343-1.012-0.665-1.526-0.987c-0.189-0.119-0.375-0.247-0.568-0.363c-0.53-0.322-1.071-0.623-1.616-0.921
					c-0.183-0.101-0.36-0.21-0.542-0.308c-0.729-0.387-1.469-0.756-2.217-1.102l-0.003-0.001c-4.229-2.2-9.074-3.196-13.823-3.652
					c0.007-1.151,0.021-2.31,0.036-3.47c0.946,0.586,1.944,1.035,2.984,1.342c0.054,0.019,0.107,0.037,0.162,0.055
					c0.043,0.012,0.084,0.024,0.127,0.036c1.534,0.462,3.146,0.608,4.789,0.326c0.106-0.012,0.212-0.013,0.315-0.027
					c4-0.55,6.494-3.812,8.122-7.61c1.201,1.832,2.629,3.517,3.849,4.779c2.285,2.365,5.556,4.061,8.896,3.912
					c3.026-0.135,5.282-1.896,6.988-4.279c0.585-0.748,1.11-1.554,1.582-2.408c1.22,6.041,4.115,11.345,10.11,13.259
					C123.989,88.277,118.443,111.599,102.306,125.935z M127.39,53.255c-1.186,3.738-4.191,12.266-9.514,10.742
					c-8.837-2.113-9.207-14.539-8.415-22.601c1.312-7.394,1.513-15.086,1.352-22.498c-0.175-8.119-1.068-16.682-3.704-24.52
					c-0.039-0.112-0.076-0.223-0.115-0.334c-0.144-0.426-0.296-0.85-0.452-1.271c-0.08-0.217-0.165-0.432-0.248-0.648
					c-0.131-0.338-0.263-0.675-0.4-1.012c-0.019-0.045-0.034-0.09-0.053-0.135c7.384-0.013,13,2.855,17.391,9.414
					c5.422,8.093,7.57,18.076,7.678,27.688C130.852,36.602,129.972,45.105,127.39,53.255z"/>
			</g>
		</g>
		<g>
			<path fill="#0B1742" d="M49.98,106.913c2.055-5.697,4.11-11.395,6.167-17.091c0.043-0.12-0.091-0.202-0.211-0.138
				c-0.315,0.171-0.672,0.271-1.051,0.271c-6.017,0-12.033,0-18.049,0c0,5.855,0,11.709,0,17.565h13.036
				C49.876,107.32,49.908,107.116,49.98,106.913z"/>
			<path fill="#0B1742" d="M21.961,53.912c1.512,0,3.024,0,4.538,0c7.642-1.264,15.285-2.526,22.927-3.789
				c16.114-2.662,32.227-5.324,48.342-7.986c0.93-0.152,1.489-0.459-0.015-0.459c-2.959,0-7.452,0-9.464,0
				c-0.785,0-1.591-0.433-1.974-1.133c-2.525-4.628-5.049-9.257-7.572-13.885c-0.382,0-0.765,0-1.147,0c0,4.244,0,8.487,0,12.731
				c0,1.246-1.039,2.287-2.286,2.287c-3.027,0-48.312,0-51.337,0c-0.674,0-1.186-0.246-1.552-0.614
				c-0.022-0.018-0.042-0.039-0.063-0.06c-0.02-0.021-0.041-0.041-0.059-0.063c-0.369-0.364-0.614-0.878-0.614-1.55
				c0-4.011,0-8.021,0-12.032c-2.549,0-5.099,0-7.648,0c0,4.011,0,8.021,0,12.032c0,1.246-1.041,2.287-2.288,2.287
				c-2.152,0-4.303,0-6.454,0L20.25,54.708C20.671,54.226,21.282,53.912,21.961,53.912z"/>
			<path fill="#0B1742" d="M70.638,100.608c-0.85,2.305-1.699,4.609-2.549,6.913h18.22c-0.812-2.304-1.624-4.608-2.438-6.913
				C79.461,100.608,75.05,100.608,70.638,100.608z"/>
			<path fill="#0B1742" d="M123.12,101.317c-3.335-5.485-6.671-10.971-10.006-16.456c0,7.554,0,15.106,0,22.66h13.748
				c-0.139-0.254-0.271-0.496-0.399-0.708C125.349,104.981,124.233,103.149,123.12,101.317z"/>
			<path fill="#0B1742" d="M123.693,41.677c-1.513,0-3.024,0-4.537,0c-7.642,1.262-15.286,2.524-22.928,3.787
				c-16.156,2.669-32.313,5.339-48.469,8.008c-0.886,0.146-0.886,0.439-0.001,0.439c2.858,0,5.718,0,8.579,0
				c1.246,0,2.286,1.04,2.286,2.286c0,3.712,0,7.424,0,11.136c0,1.246-1.04,2.287-2.286,2.287c-6.5,0-13.001,0-19.501,0
				c0,1.703,0,3.407,0,5.109c6.016,0,12.032,0,18.049,0c0.673,0,1.186,0.246,1.551,0.613c0.022,0.02,0.042,0.041,0.063,0.061
				c0.021,0.021,0.042,0.04,0.06,0.062c0.367,0.367,0.612,0.879,0.612,1.551c0,3.321,0,6.642,0,9.963
				c3.774-10.464,7.548-20.927,11.323-31.39c0.35-0.967,1.128-1.678,2.206-1.678c4.169,0,8.339,0,12.509,0
				c0.975,0,1.621,0.503,1.951,1.172c0.098,0.15,0.185,0.318,0.255,0.506c3.674,9.927,7.347,19.855,11.021,29.783
				c0-9.725,0-19.449,0-29.175c0-1.246,1.039-2.286,2.286-2.286c4.691,0,9.382,0,14.071,0c0.778,0,1.603,0.428,1.974,1.133
				c4.058,7.685,8.115,15.374,12.173,23.06c0-7.301,0-14.604,0-21.907c0-0.672,0.245-1.184,0.613-1.551
				c0.017-0.021,0.04-0.041,0.059-0.062c0.021-0.02,0.041-0.041,0.064-0.061c0.364-0.367,0.878-0.611,1.55-0.611
				c3.235,0,6.471,0,9.706,0L125.34,40.958C124.922,41.397,124.337,41.677,123.693,41.677z"/>
			<path fill="#0B1742" d="M21.684,13.704c0-3.778,0-7.556,0-11.333h-7.648c0,3.777,0,7.555,0,11.333
				C16.585,13.704,19.135,13.704,21.684,13.704z"/>
			<path fill="#0B1742" d="M110.266,26.659c0,0.804,0,1.608,0,2.412c4.477,0,8.952,0,13.428,0v-2.536
				c-0.221,0.074-0.453,0.124-0.696,0.124C118.754,26.659,114.51,26.659,110.266,26.659z"/>
			<path fill="#0B1742" d="M110.266,14.752c4.244,0,8.488,0,12.731,0c0.243,0,0.476,0.05,0.696,0.124V12.69
				c-4.476,0-8.951,0-13.428,0C110.266,13.377,110.266,14.064,110.266,14.752z"/>
			<path fill="#0B1742" d="M96.612,6.679c0-1.437,0-2.872,0-4.307h-4.109C94.178,3.47,95.592,4.93,96.612,6.679z"/>
			<path fill="#0B1742" d="M61.677,29.071l0.012-2.412c0,0-8.486,0-12.73,0c0,0.804,0,1.608,0,2.412
				C53.435,29.071,61.677,29.071,61.677,29.071z"/>
			<path fill="#0B1742" d="M48.959,14.752c4.244,0,12.73,0,12.73,0l-0.012-2.062c0,0-8.242,0-12.718,0
				C48.959,13.377,48.959,14.064,48.959,14.752z"/>
			<path fill="#0B1742" d="M77.195,74.345c-8.857,0.326-8.857,13.411,0,13.737c3.633-0.134,7.009-3.023,6.867-6.868
				C83.929,77.579,81.041,74.204,77.195,74.345z"/>
			<path fill="#0B1742" d="M85.694,13.546c-0.229-2.35-3.25-1.555-4.909-1.555c-1.063,0-2.126,0-3.189,0c0,1.037,0,2.073,0,3.11
				c1.063,0,2.126,0,3.189,0C82.042,15.101,85.921,15.877,85.694,13.546z"/>
			<path fill="#0B1742" d="M91.641,24.491c1.657,2.951,3.314,5.901,4.972,8.853c0-4.578,0-9.156,0-13.733
				C95.432,21.603,93.715,23.282,91.641,24.491z"/>
			<path fill="#F5146C" d="M87.981,13.546c0-1.65-1.539-3.841-3.188-3.841H75.31v7.683h9.484
				C86.442,17.387,87.981,15.196,87.981,13.546z M80.785,15.101c-1.063,0-2.126,0-3.189,0c0-1.037,0-2.073,0-3.11
				c1.063,0,2.126,0,3.189,0c1.659,0,4.68-0.795,4.909,1.555C85.921,15.877,82.042,15.101,80.785,15.101z"/>
			<path fill="#FFDE55" d="M141.331,53.912c-0.8,0-1.6,0-2.398,0c-3.235,0-6.471,0-9.706,0c-0.672,0-1.186,0.244-1.55,0.611
				c-0.023,0.02-0.043,0.041-0.064,0.061c-0.019,0.021-0.042,0.041-0.059,0.062c-0.368,0.367-0.613,0.879-0.613,1.551
				c0,7.303,0,14.606,0,21.907c-4.058-7.687-8.115-15.375-12.173-23.06c-0.371-0.705-1.195-1.133-1.974-1.133
				c-4.689,0-9.38,0-14.071,0c-1.247,0-2.286,1.04-2.286,2.286c0,9.726,0,19.45,0,29.175c-3.674-9.928-7.347-19.855-11.021-29.783
				c-0.07-0.188-0.157-0.355-0.255-0.506c-0.33-0.669-0.977-1.172-1.951-1.172c-4.17,0-8.34,0-12.509,0
				c-1.078,0-1.856,0.711-2.206,1.678c-3.774,10.463-7.548,20.926-11.323,31.39c0-3.321,0-6.642,0-9.963
				c0-0.672-0.245-1.184-0.612-1.551c-0.019-0.022-0.039-0.041-0.06-0.062c-0.021-0.02-0.041-0.041-0.063-0.061
				c-0.365-0.367-0.877-0.613-1.551-0.613c-6.017,0-12.033,0-18.049,0c0-1.702,0-3.406,0-5.109c6.5,0,13.001,0,19.501,0
				c1.246,0,2.286-1.041,2.286-2.287c0-3.712,0-7.424,0-11.136c0-1.246-1.04-2.286-2.286-2.286c-2.861,0-5.721,0-8.579,0
				c-0.885,0-0.885-0.293,0.001-0.439c16.156-2.669,32.312-5.339,48.469-8.008c7.642-1.263,15.286-2.525,22.928-3.787
				c1.513,0,3.024,0,4.537,0c0.644,0,1.229-0.28,1.646-0.719c0.394-0.412,0.642-0.965,0.642-1.568c0-2.678,0-5.356,0-8.033
				c0-0.672-0.245-1.184-0.613-1.551c-0.019-0.022-0.04-0.042-0.06-0.064c-0.021-0.019-0.042-0.04-0.064-0.059
				c-0.366-0.368-0.876-0.612-1.551-0.612c-4.476,0-8.951,0-13.428,0c0-0.804,0-1.608,0-2.412c4.244,0,8.488,0,12.731,0
				c0.243,0,0.476-0.05,0.696-0.124c0.913-0.302,1.59-1.16,1.59-2.163c0-2.445,0-4.889,0-7.334c0-1.002-0.677-1.86-1.59-2.162
				c-0.221-0.074-0.453-0.124-0.696-0.124c-4.243,0-8.487,0-12.731,0c0-0.688,0-1.375,0-2.062c4.477,0,8.952,0,13.428,0
				c1.247,0,2.288-1.041,2.288-2.287c0-2.678,0-5.356,0-8.032c0-1.247-1.041-2.287-2.288-2.287c-8.264,0-16.53,0-24.794,0
				c-1.248,0-2.287,1.04-2.287,2.287c0,1.436,0,2.871,0,4.307c-1.021-1.749-2.435-3.208-4.109-4.307
				c-2.122-1.392-4.663-2.206-7.36-2.287c-6.289-0.189-61.17,0-61.17,0c-1.248,0-2.289,1.04-2.289,2.287c0,3.777,0,7.555,0,11.333
				c-2.549,0-5.099,0-7.648,0c0-3.778,0-7.556,0-11.333c0-1.247-1.041-2.287-2.288-2.287c-3.026,0-6.053,0-9.08,0
				c-1.247,0-2.287,1.04-2.287,2.287c0,12.339,0,24.678,0,37.019c0,1.246,1.04,2.287,2.287,2.287c0.875,0,1.75,0,2.625,0
				c2.151,0,4.302,0,6.454,0c1.247,0,2.288-1.041,2.288-2.287c0-4.011,0-8.021,0-12.032c2.549,0,5.099,0,7.648,0
				c0,4.011,0,8.021,0,12.032c0,0.672,0.246,1.186,0.614,1.55c0.018,0.022,0.04,0.043,0.059,0.063
				c0.021,0.021,0.041,0.042,0.063,0.06c0.367,0.368,0.878,0.614,1.552,0.614c3.024,0,48.31,0,51.337,0
				c1.247,0,2.286-1.041,2.286-2.287c0-4.244,0-8.487,0-12.731c0.383,0,0.766,0,1.147,0c2.523,4.628,5.047,9.257,7.572,13.885
				c0.383,0.7,1.188,1.133,1.974,1.133c2.012,0,6.505,0,9.464,0c1.504,0,0.944,0.307,0.015,0.459
				c-16.115,2.662-32.229,5.324-48.342,7.986c-7.642,1.263-15.285,2.525-22.927,3.789c-1.513,0-3.025,0-4.538,0
				c-0.679,0-1.29,0.314-1.711,0.797c-0.354,0.402-0.576,0.922-0.576,1.489c0,17.108,0,34.216,0,51.324
				c0,1.246,1.041,2.286,2.288,2.286c4.196,0,8.393,0,12.589,0c1.246,0,2.287-1.04,2.287-2.286c0-5.856,0-11.71,0-17.565
				c6.016,0,12.032,0,18.049,0c0.379,0,0.736-0.101,1.051-0.271c0.12-0.064,0.254,0.018,0.211,0.138
				c-2.057,5.696-4.112,11.394-6.167,17.091c-0.073,0.203-0.104,0.407-0.108,0.608c-0.02,1.202,1.115,2.286,2.314,2.286
				c4.491,0,8.982,0,13.474,0c1.083,0,1.848-0.713,2.204-1.679c0.075-0.202,0.149-0.405,0.225-0.607
				c0.85-2.304,1.699-4.608,2.549-6.913c4.412,0,8.823,0,13.234,0c0.813,2.305,1.625,4.609,2.438,6.913
				c0.072,0.202,0.143,0.405,0.215,0.607c0.341,0.969,1.132,1.679,2.205,1.679c3.331,0,6.662,0,9.993,0c1.16,0,2.319,0,3.479,0
				c2.875,0,5.751,0,8.625,0c1.246,0,2.287-1.04,2.287-2.286c0-7.554,0-15.106,0-22.66c3.335,5.485,6.671,10.971,10.006,16.456
				c1.113,1.832,2.229,3.664,3.343,5.496c0.128,0.212,0.261,0.454,0.399,0.708c0.412,0.749,0.893,1.587,1.551,1.974
				c1.552,0.908,4.604,0.312,6.282,0.312c2.213,0,4.423,0,6.636,0c1.247,0,2.287-1.04,2.287-2.286c0-17.108,0-34.216,0-51.324
				C143.618,54.952,142.578,53.912,141.331,53.912z M123.693,2.372v8.032h-15.714v6.635h15.018v7.334h-15.018v6.984h15.714v8.033
				H98.899V2.372H123.693z M33.052,39.39h-9.08V25.072H11.748V39.39h-9.08V2.372h9.08v13.62h12.225V2.372h9.08V39.39z M62.387,10.403
				H46.672v6.635h15.017v7.334H46.672v6.984h15.714v8.033H37.592V2.372h24.795V10.403z M61.689,14.752c0,0-8.486,0-12.73,0
				c0-0.688,0-1.375,0-2.062c4.476,0,12.718,0,12.718,0L61.689,14.752z M61.689,26.659l-0.012,2.412c0,0-8.242,0-12.718,0
				c0-0.804,0-1.608,0-2.412C53.203,26.659,61.689,26.659,61.689,26.659z M88.289,39.39l-8.188-15.017H75.31V39.39h-9.08V2.372
				h10.298h8.614c6.049,0,10.954,4.757,10.954,10.807c0,4.898-3.216,8.897-7.648,10.299l8.937,15.912H88.289z M96.612,19.61
				c0,4.578,0,9.155,0,13.733c-1.657-2.952-3.314-5.902-4.972-8.853C93.715,23.282,95.432,21.603,96.612,19.61z M54.885,87.669H34.55
				v19.853H21.961V56.197h14.64h19.737v11.136H34.55v9.684h20.335V87.669z M141.331,107.521h-11.763L110.827,76.7v30.821h-8.625
				h-3.479h-9.993l-3.243-9.2H69.052l-3.392,9.2H52.187l18.514-51.324H83.21l15.513,41.922V56.197h14.071l16.433,31.136V56.197
				h12.104V107.521z"/>
			<path fill="#F5146C" d="M77.195,72.06c-5.048,0-9.156,4.105-9.156,9.154c0,5.048,4.108,9.155,9.156,9.155s9.155-4.107,9.155-9.155
				C86.351,76.165,82.243,72.06,77.195,72.06z M77.195,88.082c-8.857-0.326-8.857-13.411,0-13.737
				c3.846-0.141,6.733,3.234,6.867,6.869C84.204,85.059,80.828,87.948,77.195,88.082z"/>
			<path fill="#F5146C" d="M102.103,60.114c0.564,0.84,2.139,0.771,2.979,0.205c0.841-0.565,1.062-1.705,0.497-2.545
				s-1.705-1.062-2.545-0.497C102.194,57.843,101.537,59.274,102.103,60.114z"/>
			<path fill="#F5146C" d="M102.404,62.97c0.23-0.589-0.061-1.252-0.649-1.481s-1.251,0.062-1.48,0.649
				c-0.603,1.545-0.347,8.795-0.247,11.207C99.951,68.661,102.186,63.534,102.404,62.97z"/>
			<path fill="#F5146C" d="M100.027,73.345c0.002,0.189,0.009,0.379,0.02,0.567C100.073,74.367,100.057,74.076,100.027,73.345z"/>
			<path fill="#F5146C" d="M25.136,60.114c0.564,0.84,2.138,0.771,2.979,0.205c0.84-0.565,1.062-1.705,0.496-2.545
				c-0.565-0.84-1.703-1.062-2.545-0.497C25.226,57.843,24.569,59.274,25.136,60.114z"/>
			<path fill="#F5146C" d="M25.437,62.97c0.231-0.589-0.061-1.252-0.649-1.481c-0.589-0.229-1.252,0.062-1.48,0.649
				c-0.603,1.545-0.347,8.795-0.248,11.207C22.983,68.661,25.217,63.534,25.437,62.97z"/>
			<path fill="#F5146C" d="M23.08,73.912c0.027,0.455,0.01,0.164-0.02-0.567C23.063,73.534,23.068,73.724,23.08,73.912z"/>
			<path fill="#F5146C" d="M71.8,58.929c0.398-0.155,4.087-1.76,7.367-1.626c-1.357-0.059-6.82-0.274-7.938,0.161
				c-0.404,0.158-0.604,0.613-0.446,1.019C70.94,58.886,71.396,59.087,71.8,58.929z"/>
			<path fill="#F5146C" d="M79.325,57.308c-0.053-0.004-0.106-0.002-0.158-0.005C79.491,57.317,79.584,57.321,79.325,57.308z"/>
		</g>
	</g>
</svg>