<svg id="Layer_1" data-name="Layer 1" xmlns="http://www.w3.org/2000/svg" viewBox="0 0 96.67 15.38"><defs><style>.cls-1{fill:#fff;}.cls-2{fill:#1fd331;}</style></defs><title>logo-new3</title><path class="cls-1" d="M29.37,0q5.13,0,5.13,4.61,0,2.56-1.54,3.08,1.54,0.51,1.54,3.08,0,4.61-5.13,4.61H19.11V0H29.37Zm0,6.15q2.05,0,2.05-1.54T28.85,3.08H22.19V6.15h7.18Zm0,3.08H22.19V12.3h6.67q2.56,0,2.56-1.54T29.37,9.23Z"/><path class="cls-1" d="M42.56,9.23h-1.5v6.15H38V0H48.24q5.13,0,5.13,4.61T48.24,9.23h-1l7.22,6.15H49.78Zm5.17-3.08q2.56,0,2.56-1.54T47.73,3.08H41.07V6.15h6.67Z"/><path class="cls-1" d="M69.06,15.38l-5-11.52-5,11.52H55.71L62.38,0h3.34L72.4,15.38H69.06Z"/><path class="cls-1" d="M77.79,15.38H74.72V0h3.08V15.38Z"/><path class="cls-1" d="M84.37,4.67V15.38H81.29V0h3.14L93.6,10.72V0h3.08V15.38H93.54Z"/><path class="cls-1" d="M6.43,7.69L0,0H4L8.44,5.29m0,0,2,2.4,6.43,7.69h-4L8.44,10.09l-2-2.4"/><path class="cls-2" d="M8.44,5.29L12.86,0h4L10.45,7.69l-2-2.4,2,2.4-2,2.4L4,15.38H0L6.43,7.69"/></svg>